<svg xmlns="http://www.w3.org/2000/svg" version="1.1" xmlns:xlink="http://www.w3.org/1999/xlink" xmlns:svgjs="http://svgjs.dev/svgjs" width="1440" height="560" preserveAspectRatio="none" viewBox="0 0 1440 560"><g mask="url(&quot;#SvgjsMask1050&quot;)" fill="none"><path d="M 0,273 C 57.6,230.2 172.8,75.8 288,59 C 403.2,42.2 460.8,183.2 576,189 C 691.2,194.8 748.8,96.6 864,88 C 979.2,79.4 1036.8,144.8 1152,146 C 1267.2,147.2 1382.4,104.4 1440,94L1440 560L0 560z" fill="rgba(49, 118, 255, 1)"></path><path d="M 0,495 C 96,457.8 288,317.2 480,309 C 672,300.8 768,458.4 960,454 C 1152,449.6 1344,320.4 1440,287L1440 560L0 560z" fill="rgba(88, 186, 255, 1)"></path></g><defs><mask id="SvgjsMask1050"><rect width="1440" height="560" fill="#ffffff"></rect></mask></defs></svg>